<?xml version="1.0" encoding="UTF-8"?>
<svg id="_レイヤー_1" data-name="レイヤー_1" xmlns="http://www.w3.org/2000/svg" version="1.1" xmlns:xlink="http://www.w3.org/1999/xlink" viewBox="0 0 48 48">
  <!-- Generator: Adobe Illustrator 29.3.0, SVG Export Plug-In . SVG Version: 2.1.0 Build 146)  -->
  <defs>
    <style>
      .st0 {
        fill: #444;
      }

      .st1 {
        fill: lime;
      }
    </style>
  </defs>
  <rect class="st0" width="48" height="48"/>
  <polygon class="st1" points="30 6.2 30 18 0 48 0 36.2 30 6.2"/>
  <polygon class="st1" points="30 29.9 30 41.7 0 71.6 0 59.8 30 29.9"/>
  <polygon points="30 -17.4 30 -5.6 0 24.4 0 12.6 30 -17.4"/>
  <polygon points="50.8 -2.8 50.8 9 30 29.9 30 18 50.8 -2.8"/>
  <polygon points="50.8 20.8 50.8 32.6 30 53.5 30 41.7 50.8 20.8"/>
  <polygon points="50.8 -26.5 50.8 -14.6 30 6.2 30 -5.6 50.8 -26.5"/>
</svg>